<svg xmlns="http://www.w3.org/2000/svg" width="25" height="42" viewBox="0 0 25 42">
  <defs>
    <style>
      .cls-1 {
        fill: #fff;
        fill-rule: evenodd;
      }
    </style>
  </defs>
  <path id="_" data-name="$" class="cls-1" d="M13.079,18.57V8.254a5.794,5.794,0,0,1,3.212,1.618A5.425,5.425,0,0,1,17.768,12.8h5.768a9.188,9.188,0,0,0-3.142-6.049,12.048,12.048,0,0,0-7.315-2.72V0H11.485V3.986A13.738,13.738,0,0,0,5.764,5.112,9.121,9.121,0,0,0,1.895,8.254,8.007,8.007,0,0,0,.512,12.9a7.989,7.989,0,0,0,1.547,5.158,9.269,9.269,0,0,0,3.564,2.79,59.889,59.889,0,0,0,5.862,2.04V33.529A5.97,5.97,0,0,1,7.85,31.653a5.815,5.815,0,0,1-1.524-3.329H0.605a9.292,9.292,0,0,0,3.283,6.495,12.844,12.844,0,0,0,7.6,2.931v3.845h1.594V37.843h0.094a13.327,13.327,0,0,0,6.1-1.266A8.893,8.893,0,0,0,23,33.224,8.69,8.69,0,0,0,24.24,28.7a8.177,8.177,0,0,0-1.43-5.041,9.038,9.038,0,0,0-3.47-2.837,45.5,45.5,0,0,0-5.369-1.969ZM6.233,12.708A4.162,4.162,0,0,1,7.639,9.356a5.933,5.933,0,0,1,3.845-1.243v9.941a11.83,11.83,0,0,1-3.892-2.087,4.115,4.115,0,0,1-1.36-3.259h0ZM13.079,33.67V23.4a12.383,12.383,0,0,1,4.033,2.087,4.162,4.162,0,0,1,1.407,3.353,4.579,4.579,0,0,1-1.43,3.47,5.586,5.586,0,0,1-4.009,1.36h0Z"/>
</svg>
